<svg xmlns="http://www.w3.org/2000/svg" viewBox="0 0 520 320">
<defs>
<linearGradient id="bg" x1="0" y1="0" x2="1" y2="1">
<stop offset="0" stop-color="#101418"/>
<stop offset="1" stop-color="#20262b"/>
</linearGradient>
</defs>
<rect width="520" height="320" fill="url(#bg)"/>
<circle cx="404.0" cy="160.0" r="14.3" fill="#cdb4db" stroke="#00000022" stroke-width="1"/><circle cx="399.7" cy="155.7" r="2.3" fill="#ffffff88"/><circle cx="402.2" cy="182.5" r="14.1" fill="#0b7a75" stroke="#00000022" stroke-width="1"/><circle cx="398.0" cy="178.3" r="2.1" fill="#ffffff88"/><circle cx="397.0" cy="204.5" r="13.3" fill="#073b4c" stroke="#00000022" stroke-width="1"/><circle cx="393.0" cy="200.5" r="3.9" fill="#ffffff88"/><circle cx="388.3" cy="225.4" r="13.9" fill="#e09f3e" stroke="#00000022" stroke-width="1"/><circle cx="384.1" cy="221.2" r="3.7" fill="#ffffff88"/><circle cx="376.5" cy="244.6" r="10.2" fill="#bde0fe" stroke="#00000022" stroke-width="1"/><circle cx="373.4" cy="241.6" r="1.8" fill="#ffffff88"/><circle cx="361.8" cy="261.8" r="15.0" fill="#e0aaff" stroke="#00000022" stroke-width="1"/><circle cx="357.3" cy="257.3" r="3.5" fill="#ffffff88"/><circle cx="344.6" cy="276.5" r="13.5" fill="#7b2cbf" stroke="#00000022" stroke-width="1"/><circle cx="340.6" cy="272.5" r="3.2" fill="#ffffff88"/><circle cx="325.4" cy="288.3" r="13.6" fill="#a2d2ff" stroke="#00000022" stroke-width="1"/><circle cx="321.3" cy="284.2" r="2.6" fill="#ffffff88"/><circle cx="304.5" cy="297.0" r="14.4" fill="#023047" stroke="#00000022" stroke-width="1"/><circle cx="300.2" cy="292.6" r="2.4" fill="#ffffff88"/><circle cx="282.5" cy="302.2" r="11.4" fill="#0f9d8a" stroke="#00000022" stroke-width="1"/><circle cx="279.1" cy="298.8" r="2.3" fill="#ffffff88"/><circle cx="260.0" cy="304.0" r="11.3" fill="#c1121f" stroke="#00000022" stroke-width="1"/><circle cx="256.6" cy="300.6" r="2.4" fill="#ffffff88"/><circle cx="237.5" cy="302.2" r="8.8" fill="#7b2cbf" stroke="#00000022" stroke-width="1"/><circle cx="234.8" cy="299.6" r="2.2" fill="#ffffff88"/><circle cx="215.5" cy="297.0" r="14.4" fill="#0f9d8a" stroke="#00000022" stroke-width="1"/><circle cx="211.2" cy="292.6" r="4.2" fill="#ffffff88"/><circle cx="194.6" cy="288.3" r="12.7" fill="#7b2cbf" stroke="#00000022" stroke-width="1"/><circle cx="190.8" cy="284.5" r="3.5" fill="#ffffff88"/><circle cx="175.4" cy="276.5" r="15.3" fill="#073b4c" stroke="#00000022" stroke-width="1"/><circle cx="170.8" cy="271.9" r="4.4" fill="#ffffff88"/><circle cx="158.2" cy="261.8" r="15.3" fill="#8ecae6" stroke="#00000022" stroke-width="1"/><circle cx="153.6" cy="257.2" r="3.6" fill="#ffffff88"/><circle cx="143.5" cy="244.6" r="15.8" fill="#e0aaff" stroke="#00000022" stroke-width="1"/><circle cx="138.8" cy="239.9" r="4.3" fill="#ffffff88"/><circle cx="131.7" cy="225.4" r="15.8" fill="#0b7a75" stroke="#00000022" stroke-width="1"/><circle cx="127.0" cy="220.6" r="3.9" fill="#ffffff88"/><circle cx="123.0" cy="204.5" r="10.0" fill="#118ab2" stroke="#00000022" stroke-width="1"/><circle cx="120.1" cy="201.5" r="1.9" fill="#ffffff88"/><circle cx="117.8" cy="182.5" r="12.7" fill="#0f9d8a" stroke="#00000022" stroke-width="1"/><circle cx="114.0" cy="178.7" r="2.9" fill="#ffffff88"/><circle cx="116.0" cy="160.0" r="13.4" fill="#7b2cbf" stroke="#00000022" stroke-width="1"/><circle cx="112.0" cy="156.0" r="2.2" fill="#ffffff88"/><circle cx="117.8" cy="137.5" r="13.3" fill="#c1121f" stroke="#00000022" stroke-width="1"/><circle cx="113.8" cy="133.5" r="3.4" fill="#ffffff88"/><circle cx="123.0" cy="115.5" r="11.0" fill="#7b2cbf" stroke="#00000022" stroke-width="1"/><circle cx="119.7" cy="112.2" r="1.9" fill="#ffffff88"/><circle cx="131.7" cy="94.6" r="9.7" fill="#cdb4db" stroke="#00000022" stroke-width="1"/><circle cx="128.8" cy="91.7" r="2.7" fill="#ffffff88"/><circle cx="143.5" cy="75.4" r="12.2" fill="#7b2cbf" stroke="#00000022" stroke-width="1"/><circle cx="139.8" cy="71.7" r="3.2" fill="#ffffff88"/><circle cx="158.2" cy="58.2" r="8.1" fill="#e09f3e" stroke="#00000022" stroke-width="1"/><circle cx="155.7" cy="55.7" r="1.9" fill="#ffffff88"/><circle cx="175.4" cy="43.5" r="13.4" fill="#219ebc" stroke="#00000022" stroke-width="1"/><circle cx="171.3" cy="39.5" r="2.6" fill="#ffffff88"/><circle cx="194.6" cy="31.7" r="11.0" fill="#118ab2" stroke="#00000022" stroke-width="1"/><circle cx="191.3" cy="28.4" r="2.1" fill="#ffffff88"/><circle cx="215.5" cy="23.0" r="13.4" fill="#073b4c" stroke="#00000022" stroke-width="1"/><circle cx="211.5" cy="19.0" r="2.1" fill="#ffffff88"/><circle cx="237.5" cy="17.8" r="11.4" fill="#a2d2ff" stroke="#00000022" stroke-width="1"/><circle cx="234.1" cy="14.4" r="3.4" fill="#ffffff88"/><circle cx="260.0" cy="16.0" r="8.8" fill="#073b4c" stroke="#00000022" stroke-width="1"/><circle cx="257.4" cy="13.4" r="1.6" fill="#ffffff88"/><circle cx="282.5" cy="17.8" r="15.8" fill="#e0aaff" stroke="#00000022" stroke-width="1"/><circle cx="277.8" cy="13.0" r="3.8" fill="#ffffff88"/><circle cx="304.5" cy="23.0" r="15.0" fill="#073b4c" stroke="#00000022" stroke-width="1"/><circle cx="300.0" cy="18.6" r="3.2" fill="#ffffff88"/><circle cx="325.4" cy="31.7" r="14.7" fill="#bde0fe" stroke="#00000022" stroke-width="1"/><circle cx="321.0" cy="27.3" r="2.4" fill="#ffffff88"/><circle cx="344.6" cy="43.5" r="11.4" fill="#c1121f" stroke="#00000022" stroke-width="1"/><circle cx="341.2" cy="40.1" r="2.9" fill="#ffffff88"/><circle cx="361.8" cy="58.2" r="11.3" fill="#0f9d8a" stroke="#00000022" stroke-width="1"/><circle cx="358.4" cy="54.8" r="2.0" fill="#ffffff88"/><circle cx="376.5" cy="75.4" r="13.4" fill="#073b4c" stroke="#00000022" stroke-width="1"/><circle cx="372.5" cy="71.3" r="3.0" fill="#ffffff88"/><circle cx="388.3" cy="94.6" r="14.3" fill="#0e6ba8" stroke="#00000022" stroke-width="1"/><circle cx="384.0" cy="90.3" r="2.2" fill="#ffffff88"/><circle cx="397.0" cy="115.5" r="12.3" fill="#c1121f" stroke="#00000022" stroke-width="1"/><circle cx="393.3" cy="111.8" r="2.9" fill="#ffffff88"/><circle cx="402.2" cy="137.5" r="10.9" fill="#c1121f" stroke="#00000022" stroke-width="1"/><circle cx="399.0" cy="134.2" r="2.5" fill="#ffffff88"/>
<rect x="0" y="292" width="520" height="28" fill="#00000055"/>
<text x="260.0" y="311" font-family="Arial, sans-serif" font-size="14" fill="#ffffff" text-anchor="middle">Beads mix photo coming soon</text>
</svg>